<svg width="71" height="19" xmlns="http://www.w3.org/2000/svg"><path d="M55.71 10.578c-.206.991-.99 1.423-1.941 1.466-.827.042-1.57-.69-1.033-1.552.413-.732 1.57-.905 2.272-.905h.91c-.084.345-.126.647-.208.991m-.247-7.584c-1.777 0-3.182.474-4.256.69l-.33 2.714c.536-.258 2.23-.732 3.635-.775 1.406-.044 2.232.258 1.943 1.465-4.174 0-6.984.861-7.562 3.577-.827 4.654 4.256 4.524 6.28 2.499l-.247 1.12h3.718l1.612-7.412c.66-3.146-2.19-3.92-4.793-3.878zM63.437.063l-3.076 14.221h3.777L67.253.063h-3.816zm-17.479 4.87c-.249 1.078-1.326 1.94-2.361 1.94h-1.864l.829-3.879h1.988c1.036 0 1.656.862 1.408 1.939zm.124-4.826h-6.916l-3.065 14.177h4.017l1.036-4.697h2.857c2.816 0 5.135-1.723 5.757-4.654.704-3.318-1.698-4.826-3.686-4.826zM19.53 10.578c-.204.991-1.02 1.423-1.96 1.466-.816.042-1.51-.69-.979-1.552.408-.732 1.551-.905 2.204-.905h.94c-.083.345-.164.647-.205.991zm-.285-7.584c-1.755 0-3.144.474-4.164.69l-.327 2.714c.49-.258 2.164-.732 3.551-.775 1.389-.044 2.205.258 1.96 1.465-4.123 0-6.898.861-7.47 3.577-.816 4.654 4.204 4.524 6.163 2.499l-.244 1.12h3.714l1.592-7.412c.653-3.146-2.204-3.92-4.775-3.878zm6.393.204h3.714l.599 6.603 3.634-6.603h3.834L28.593 19H24.44l2.715-4.646-1.517-11.156zM9.882 4.933c-.25 1.078-1.287 1.94-2.326 1.94h-1.91l.873-3.879H8.51c.997 0 1.661.862 1.37 1.939zm.124-4.826H3.073L0 14.284h4.07l.996-4.697h2.906c2.782 0 5.107-1.723 5.73-4.654.705-3.318-1.661-4.826-3.696-4.826zm58.062 1.794V.225h-.622V0h1.499v.225h-.625V1.9h-.252zm1.125 0V0h.375l.448 1.346c.042.125.071.219.09.281.022-.07.056-.17.101-.305L70.662 0h.336v1.901h-.24V.31l-.552 1.592h-.226L69.434.284V1.9h-.24z" fill="#FFF" fill-rule="evenodd"/></svg>